<svg width="106" height="106" viewBox="0 0 106 106" fill="none" xmlns="http://www.w3.org/2000/svg">
<path fill-rule="evenodd" clip-rule="evenodd" d="M85.5165 99.8124L90.9319 105.737L97.5975 99.7575L92.5589 94.2452C90.3889 96.3018 88.0322 98.1667 85.5165 99.8124Z" fill="black"/>
<path fill-rule="evenodd" clip-rule="evenodd" d="M4.10656 57.7459C4.03589 56.6683 4 55.5813 4 54.486C4 27.1298 26.3858 4.95327 54 4.95327C56.3153 4.95327 58.5939 5.10917 60.8256 5.41096C54.8515 1.97037 47.908 0 40.5 0C18.1325 0 0 17.963 0 40.1215C0 46.4446 1.47649 52.426 4.10656 57.7459Z" fill="black"/>
<path fill-rule="evenodd" clip-rule="evenodd" d="M56 106C83.6142 106 106 83.8235 106 56.4673C106 29.1111 83.6142 6.93459 56 6.93459C28.3858 6.93459 6 29.1111 6 56.4673C6 67.7364 9.79874 78.1265 16.1968 86.4496L95.6875 26.7477L96.2952 27.5418L16.8144 87.2364C25.9735 98.6685 40.1225 106 56 106Z" fill="black"/>
</svg>
